<svg xmlns="http://www.w3.org/2000/svg" xmlns:xlink="http://www.w3.org/1999/xlink" width="68" height="68" viewBox="0 0 68 68">
  <defs>
    <filter id="Ellipse_9" x="0" y="0" width="68" height="68" filterUnits="userSpaceOnUse">
      <feOffset dy="3" input="SourceAlpha"/>
      <feGaussianBlur stdDeviation="3" result="blur"/>
      <feFlood flood-opacity="0.161"/>
      <feComposite operator="in" in2="blur"/>
      <feComposite in="SourceGraphic"/>
    </filter>
  </defs>
  <g id="Group_1383" data-name="Group 1383" transform="translate(-354 -104)">
    <g transform="matrix(1, 0, 0, 1, 354, 104)" filter="url(#Ellipse_9)">
      <circle id="Ellipse_9-2" data-name="Ellipse 9" cx="25" cy="25" r="25" transform="translate(9 6)" fill="#fff"/>
    </g>
    <path id="Icon_awesome-share" data-name="Icon awesome-share" d="M20.331,8.621l-7.1-6.135a.969.969,0,0,0-1.6.733V6.451C5.141,6.525,0,7.824,0,13.969A8.252,8.252,0,0,0,3.364,20.19.719.719,0,0,0,4.5,19.438c-1.83-5.853.868-7.407,7.128-7.5V15.49a.969.969,0,0,0,1.6.733l7.1-6.135A.969.969,0,0,0,20.331,8.621Z" transform="translate(377.667 123.708)" fill="#f70"/>
  </g>
</svg>
