<svg xmlns="http://www.w3.org/2000/svg" width="13.286" height="16.316" viewBox="0 0 13.286 16.316">
  <path id="Icon_metro-apple" data-name="Icon metro-apple" d="M16.532,10.6a3.691,3.691,0,0,1,1.761-3.107A3.81,3.81,0,0,0,15.31,5.874c-1.271-.129-2.479.748-3.124.748s-1.638-.729-2.692-.71A3.992,3.992,0,0,0,6.119,7.958c-1.439,2.5-.368,6.2,1.034,8.221.685.991,1.5,2.1,2.575,2.065,1.033-.041,1.424-.669,2.673-.669s1.6.669,2.694.648c1.112-.021,1.816-1.01,2.5-2a8.994,8.994,0,0,0,1.13-2.32,3.6,3.6,0,0,1-2.189-3.3ZM14.477,4.534a3.6,3.6,0,0,0,.849-2.606,3.658,3.658,0,0,0-2.4,1.236,3.421,3.421,0,0,0-.866,2.524A3.026,3.026,0,0,0,14.477,4.534Z" transform="translate(-5.436 -1.928)" fill="#fff"/>
</svg>
