<svg xmlns="http://www.w3.org/2000/svg" width="15" height="15" viewBox="0 0 15 15">
  <path id="Icon_ionic-logo-facebook" data-name="Icon ionic-logo-facebook" d="M18.672,4.5H5.328a.829.829,0,0,0-.828.828V18.672a.829.829,0,0,0,.828.828H12V13.563H10.207V11.375H12V9.758a2.85,2.85,0,0,1,3.074-2.992c.828,0,1.719.063,1.926.09V8.879H15.621c-.941,0-1.121.445-1.121,1.1v1.395h2.242l-.293,2.188H14.5V19.5h4.172a.829.829,0,0,0,.828-.828V5.328A.829.829,0,0,0,18.672,4.5Z" transform="translate(-4.5 -4.5)" fill="#fff"/>
</svg>
